<svg id="Layer_1" data-name="Layer 1" xmlns="http://www.w3.org/2000/svg" viewBox="0 0 957.36 240.78"><defs><style>.cls-1{fill:#150958;}.cls-2{fill:#8dc63f;}</style></defs><path class="cls-1" d="M235.07,172.8V198a15.68,15.68,0,0,1-15.67,15.67H92A15.68,15.68,0,0,1,76.28,198V171a15.7,15.7,0,0,1,3.15-9.42L129.88,94.5a15.67,15.67,0,0,0-12.52-25.09h-23A15.67,15.67,0,0,1,78.71,53.74V28.57A15.68,15.68,0,0,1,94.38,12.9H215.93A15.68,15.68,0,0,1,231.6,28.57V55.12a15.65,15.65,0,0,1-3.19,9.48L177.21,132a15.67,15.67,0,0,0,12.48,25.15H219.4A15.67,15.67,0,0,1,235.07,172.8Z"/><path class="cls-1" d="M399.23,158.51H329.64c-7.33,0-7.76,11-.44,11.41l1.2,0c5.35,0,20.09,0,32.87-4.9a5.72,5.72,0,0,1,6.59,1.84l21.06,27.37a5.7,5.7,0,0,1-1.87,8.53c-9.86,5.22-31.36,14.66-57.95,14.66-44.38,0-79.74-34.67-79.74-77.31s35.36-77.31,79.74-77.31c38.48,0,73.84,28.43,73.84,78.7V152.8A5.71,5.71,0,0,1,399.23,158.51ZM330.4,109.63a21.49,21.49,0,0,0-11.58,2.94,5.72,5.72,0,0,0,3,10.58h16.9c5.56,0,7.93-7.27,3.31-10.37A20.55,20.55,0,0,0,330.4,109.63Z"/><path class="cls-1" d="M487.11,69.78a3.14,3.14,0,0,0,5.21,2.36,33.2,33.2,0,0,1,20.79-7.58,71.6,71.6,0,0,1,19.06,2.18,3.15,3.15,0,0,1,2.43,3.06v49.73a3.13,3.13,0,0,1-3.56,3.1,146.44,146.44,0,0,0-17.93-1.56c-18.72,0-26,10.4-26,27.74v61.68a3.15,3.15,0,0,1-3.15,3.15H430.27a3.15,3.15,0,0,1-3.14-3.15V69.78a3.15,3.15,0,0,1,3.14-3.14H484a3.15,3.15,0,0,1,3.15,3.14Z"/><path class="cls-2" d="M561,66.64h0a12.48,12.48,0,0,0,12.48-12.48V28.3a12.49,12.49,0,0,1,10-12.23l34.67-7a12.48,12.48,0,0,1,15,12.23V54.16a12.48,12.48,0,0,0,12.48,12.48h5.54a12.49,12.49,0,0,1,12.49,12.48v31.55a12.49,12.49,0,0,1-12.49,12.48h-5.54a12.48,12.48,0,0,0-12.48,12.48V149.5s0,12.83,11.78,12.83c0,0,1.85,0,4.79-.28a12.48,12.48,0,0,1,13.59,12.44v25.37A12.49,12.49,0,0,1,652,212.28a228.81,228.81,0,0,1-23.14,1.36c-7.63,0-55.47,0-55.47-60v-18A12.48,12.48,0,0,0,561,123.15h0a12.48,12.48,0,0,1-12.48-12.48V79.12A12.48,12.48,0,0,1,561,66.64Z"/><path class="cls-2" d="M783.86,203.73a.56.56,0,0,0-1-.38c-12.58,14.1-32.71,14.1-35.07,14.1-41.6,0-66.22-34.67-66.22-77.31s24.62-77.31,66.22-77.31c2.36,0,22.49,0,35.07,14.1a.57.57,0,0,0,1-.39h0a9.91,9.91,0,0,1,9.91-9.9H832.4a11.44,11.44,0,0,1,11.44,11.44V202.2a11.44,11.44,0,0,1-11.44,11.44H793.77a9.91,9.91,0,0,1-9.91-9.91Zm0-62.5c.55-10.72-7.46-20-18.07-21.63a20.81,20.81,0,1,0-3.4,41.34C773.79,160.94,783.26,152.48,783.84,141.23Z"/><circle class="cls-1" cx="24.33" cy="139.1" r="19.24"/><circle class="cls-2" cx="918.62" cy="141.7" r="19.24"/></svg>
